<svg width="181" height="36" viewBox="0 0 181 36" fill="none" xmlns="http://www.w3.org/2000/svg">
                        <path d="M0 18.1H17.7V23.5H0V18.1Z" fill="#0074FF" />
                        <path d="M31.0002 1.09998V28.8H48.3002V34.7H24.7002V1.09998H31.0002Z" fill="black" />
                        <path
                            d="M85 18.1C84.9 26.8 79.6 35.5 67.8 35.5C56 35.5 50.5 26.9 50.5 18.1C50.5 7.50002 58.2 0.400024 67.9 0.400024C79.4 0.500024 85.1 9.30002 85 18.1ZM67.8 29.6C75.7 29.6 78.7 23.6 78.8 18.1C78.9 12.5 75.7 6.20002 68 6.10002C60.8 6.10002 56.6 11.5 56.8 18.1C56.9 23.7 59.9 29.6 67.8 29.6Z"
                            fill="black" />
                        <path
                            d="M114 9.3C111.7 7.1 108.4 5.9 105.5 5.9C98.3002 5.9 93.9002 11.4 93.9002 18.3C93.9002 23.8 97.1002 29.5 105.5 29.5C108.1 29.5 110.4 28.9 113.1 26.8V20.8H104.5V15.1H118.9V29.3C115.6 33.1 111.4 35.3 105.5 35.3C92.9002 35.3 87.7002 27 87.7002 18.2C87.7002 8.7 93.6002 0 105.5 0C110 0 114.5 1.7 118 5.1L114 9.3Z"
                            fill="black" />
                        <path
                            d="M157.8 18.1C157.7 26.8 152.4 35.5 140.6 35.5C128.8 35.5 123.3 27 123.3 18.2C123.3 7.6 131 0.5 140.7 0.5C152.2 0.5 157.9 9.3 157.8 18.1ZM140.6 29.6C148.5 29.6 151.5 23.6 151.6 18.1C151.7 12.5 148.5 6.2 140.8 6.1C133.6 6.1 129.4 11.5 129.6 18.1C129.7 23.7 132.7 29.6 140.6 29.6Z"
                            fill="black" />
                        <path d="M162.8 18.1H180.5V23.5H162.8V18.1Z" fill="#0074FF" />
                    </svg>