<svg width="183" height="36" viewBox="0 0 183 36" fill="none" xmlns="http://www.w3.org/2000/svg">
            <path d="M0 18.1001H17.7V23.5001H0V18.1001Z" fill="#0074FF" />
            <path d="M31.0002 1.1001V28.8001H48.3002V34.7001H24.7002V1.1001H31.0002Z" fill="white" />
            <path
                d="M85 18.0999C84.9 26.7999 79.6 35.4999 67.8 35.4999C56 35.4999 50.5 26.8999 50.5 18.0999C50.5 7.4999 58.2 0.399902 67.9 0.399902C79.4 0.499902 85.1 9.2999 85 18.0999ZM67.8 29.5999C75.7 29.5999 78.7 23.5999 78.8 18.0999C78.9 12.4999 75.7 6.1999 68 6.0999C60.8 6.0999 56.6 11.4999 56.8 18.0999C56.9 23.6999 59.9 29.5999 67.8 29.5999Z"
                fill="white" />
            <path
                d="M116 9.3C113.7 7.1 110.4 5.9 107.5 5.9C100.3 5.9 95.9002 11.4 95.9002 18.3C95.9002 23.8 99.1002 29.5 107.5 29.5C110.1 29.5 112.4 28.9 115.1 26.8V20.8H106.5V15.1H120.9V29.3C117.6 33.1 113.4 35.3 107.5 35.3C94.9002 35.3 89.7002 27 89.7002 18.2C89.7002 8.7 95.6002 0 107.5 0C112 0 116.5 1.7 120 5.1L116 9.3Z"
                fill="white" />
            <path
                d="M159.8 18.1C159.7 26.8 154.4 35.5 142.6 35.5C130.8 35.5 125.3 27 125.3 18.2C125.3 7.6 133 0.5 142.7 0.5C154.2 0.5 159.9 9.3 159.8 18.1ZM142.6 29.6C150.5 29.6 153.5 23.6 153.6 18.1C153.7 12.5 150.5 6.2 142.8 6.1C135.6 6.1 131.4 11.5 131.6 18.1C131.7 23.7 134.7 29.6 142.6 29.6Z"
                fill="white" />
            <path d="M164.8 18.1001H182.5V23.5001H164.8V18.1001Z" fill="#0074FF" />
        </svg>